<svg height="512" viewBox="0 0 512 512" width="512" xmlns="http://www.w3.org/2000/svg"><g id="Fill_out_line" data-name="Fill out line"><path d="m440 120h-232v-56h208z" fill="#ab693d"/><path d="m208 120h232v80h-232z" fill="#8c5428"/><path d="m416 64h-208v-40h136z" fill="#da9065"/><path d="m304 120-24-56-72-40-72 40-24 56v80h192z" fill="#e04446"/><path d="m152 80h16v16h-16z" fill="#68737f"/><path d="m248 80h16v16h-16z" fill="#68737f"/><path d="m176 136h32v64h-32z" fill="#da9065"/><path d="m200 48h16v16h-16z" fill="#68737f"/><path d="m440 120 48 32h-136l-48-32z" fill="#da9065"/><path d="m440 152h48v48h-48z" fill="#9f764a"/><path d="m304 120 48 32v48h-48z" fill="#ba8b5d"/><path d="m112 160h-24v-16h-16v16h-24v-16h-16v16h-8v16h8v24h16v-24h24v24h16v-24h24z" fill="#da9065"/><path d="m24 200h464v288h-464z" fill="#7ab355"/><g fill="#699949"><path d="m24 288h464v16h-464z"/><path d="m24 336h464v16h-464z"/><path d="m24 384h464v16h-464z"/></g><path d="m128 288h32l16 80h-48z" fill="#68737f"/><path d="m208.845 300.422 14.31 7.156" fill="#4f5761"/><path d="m207.155 339.578-14.31-7.156" fill="#4f5761"/><path d="m184 408-16-64-40-24v88z" fill="#ce2337"/><path d="m288 336v72h-136v-40h80v-40z" fill="#e04446"/><circle cx="112" cy="392" fill="#68737f" r="48"/><path d="m112 448a56 56 0 1 1 56-56 56.06322 56.06322 0 0 1 -56 56zm0-96a40 40 0 1 0 40 40 40.04552 40.04552 0 0 0 -40-40z" fill="#4f5761"/><circle cx="112" cy="392" fill="#d4e4f0" r="16"/><path d="m187.44629 418.666-15.08594-5.332a64.05028 64.05028 0 0 0 -81.69435-81.69435l-5.332-15.085a80.051 80.051 0 0 1 102.11229 102.11135z" fill="#d6323f"/><circle cx="280" cy="408" fill="#68737f" r="32"/><path d="m280 448a40 40 0 1 1 40-40 40.04552 40.04552 0 0 1 -40 40zm0-64a24 24 0 1 0 24 24 24.0275 24.0275 0 0 0 -24-24z" fill="#4f5761"/><path d="m492.4375 145.34375-46.0205-30.68036-23.06348-53.81476a8.00048 8.00048 0 0 0 -3.46875-3.84179l-72-40a8.00029 8.00029 0 0 0 -3.88477-1.00684h-136a7.97807 7.97807 0 0 0 -3.88354 1.00891l-.00123-.00207-72 40a8.00048 8.00048 0 0 0 -3.46875 3.84179l-24 56a7.99916 7.99916 0 0 0 -.64648 3.15137v40h-16v-16h-16v16h-24v-16h-16v16h-16v16h16v16h-16v16h472a8.00008 8.00008 0 0 0 8-8v-48a7.99943 7.99943 0 0 0 -3.5625-6.65625zm-180.4375-10.39581 32 21.33331v35.71875h-32zm48 25.05206h72v32h-72zm-5.57812-16-24-16h107.15624l24 16zm73.44628-32h-118.59277l-17.14282-40h118.59277zm-85.9414-80 43.20044 24h-103.05469l-43.19946-24zm-199.65137 37.665 65.72461-36.51363 65.72461 36.51363 22.27539 51.97782v70.35718h-48v-56a8.00008 8.00008 0 0 0 -8-8h-64a8.00008 8.00008 0 0 0 -8 8v56h-48v-70.35791zm73.72461 74.335h16v48h-16zm-16 48h-16v-48h16zm-96-16v16h-16v-16zm-56 0h24v16h-24zm400 16v-32h32v32z"/><path d="m152 80h16v16h-16z"/><path d="m248 80h16v16h-16z"/><path d="m200 48h16v16h-16z"/><path d="m112 368a24 24 0 1 0 24 24 24.02718 24.02718 0 0 0 -24-24zm0 32a8 8 0 1 1 8-8 8.00917 8.00917 0 0 1 -8 8z"/><circle cx="280" cy="408" r="8"/><path d="m320 408a40.05231 40.05231 0 0 0 -24-36.65v-35.35a8.00023 8.00023 0 0 0 -6.86816-7.91943l-9.13184-1.30457v-22.776h-16v20.4903l-30.86816-4.40973a7.9937 7.9937 0 0 0 -6.37305 1.876c-.20166.17487-.39063.361-.57227.55323l-7.873-5.24866 4.84179-9.68347-14.31054-7.15528-16 32 14.31054 7.15528 3.94727-7.89466 12.89742 8.59824v19.71875h-38.68848a79.742 79.742 0 0 0 -4.50732-8.781l-12.95947-64.78833a8 8 0 0 0 -7.84473-6.43067h-32a8.00008 8.00008 0 0 0 -8 8v24.40546c-2.65942-.26477-5.33057-.40546-8-.40546a79.667 79.667 0 0 0 -26.6709 4.55908l5.3418 15.082a63.705 63.705 0 0 1 21.3291-3.64108 63.8179 63.8179 0 0 1 54.42285 30.30908 63.43542 63.43542 0 0 1 5.93262 12.3501l.00049-.00018.00439.01532a64.33391 64.33391 0 0 1 2.04883 35.55029 8.00068 8.00068 0 0 0 7.80082 9.77539h58.595a39.83418 39.83418 0 0 0 7.217 16h-96.88357a56 56 0 1 0 -78.27686 0h-56.86157v16h480v-16h-184.022a39.79015 39.79015 0 0 0 8.022-24zm-248-16a40 40 0 1 1 40 40 40.04552 40.04552 0 0 1 -40-40zm64-76.306v-19.694h17.44141l6.39038 31.94708a80.35676 80.35676 0 0 0 -23.83179-12.25308zm54.40137 60.306h41.59863a8.00008 8.00008 0 0 0 8-8v-30.77588l40 5.71436v25.06152a40.068 40.068 0 0 0 -39.19507 32h-49.20337c.26563-2.65381.39844-5.32568.39844-8a80.30752 80.30752 0 0 0 -1.59863-16zm65.59863 32a24 24 0 1 1 24 24 24.0275 24.0275 0 0 1 -24-24z"/><path d="m16 480h480v16h-480z"/><path d="m16 240h480v16h-480z"/><path d="m296 288h200v16h-200z"/><path d="m16 288h88v16h-88z"/><path d="m312 336h184v16h-184z"/><path d="m16 336h40v16h-40z"/><path d="m336 384h160v16h-160z"/><path d="m16 384h24v16h-24z"/></g></svg>