<svg id="Capa_1" enable-background="new 0 0 512 512" height="512" viewBox="0 0 512 512" width="512" xmlns="http://www.w3.org/2000/svg"><g><g><path d="m511.8 245.93-81.98 85.54c-95.01 99.12-252.89 100.92-350.12 3.98l-79.7-79.45c0-.33 0-.67.01-1 .17-45.85 12.4-88.84 33.67-126 44.12-77.07 127.16-129 222.32-129 28.52 0 55.96 4.66 81.58 13.28 0 23.6 16.51 43.99 39.59 48.9l59.73 12.7c16.09 16.06 30.05 34.25 41.42 54.12 12.98 22.67 22.59 47.52 28.15 73.86 2.96 13.98 4.77 28.36 5.33 43.07z" fill="#92eaff"/><g><path d="m511.8 245.93-81.98 85.54c-95.01 99.12-252.89 100.92-350.12 3.98l-79.7-79.45c0-46.22 12.25-89.57 33.68-127 44.12 77.07 127.16 129 222.32 129s178.2-51.93 222.32-129c19.87 34.7 31.84 74.48 33.48 116.93z" fill="#63dbfa"/></g></g><g><g><path d="m374.557 272.773h-8.733l.467-14.189.575-17.431h6.648l.575 17.431z" fill="#ec771b"/><path d="m374.557 272.773h-4.2v-31.62h3.157l.575 17.431z" fill="#c55732"/><path d="m370.357 256.586v-15.434h-3.491l-.509 15.434z" fill="#c55732"/><path d="m374.023 256.586-.509-15.434h-3.157v15.434z" fill="#a44e3e"/><g><path d="m383.921 246.7c-3.756 3.585-8.66 5.378-13.563 5.378s-9.806-1.792-13.563-5.378c-5.992-5.718-7.19-14.279-3.595-21.135 3.76-7.17 7.686-14.256 10.881-21.678l6.277-14.583 6.266 14.553c3.201 7.434 7.133 14.531 10.896 21.713 3.591 6.855 2.392 15.414-3.599 21.13z" fill="#43af3e"/><path d="m383.921 246.7c-3.756 3.585-8.66 5.378-13.563 5.378-2.326 0-4.652-1.792-6.435-5.378-2.882-5.796-3.427-14.513-1.635-21.414 2.492-9.597 4.7-19.482 6.746-29.498l1.324-6.484 6.266 14.553c3.201 7.434 7.133 14.531 10.896 21.713 3.591 6.855 2.392 15.414-3.599 21.13z" fill="#00a23e"/><path d="m383.921 246.7c-3.756 3.585-8.66 5.378-13.563 5.378v-62.774l6.266 14.553c3.201 7.434 7.133 14.531 10.896 21.713 3.591 6.855 2.392 15.414-3.599 21.13z" fill="#008839"/></g></g><g><path d="m474.569 252.113h-9.023l.483-14.66.594-18.009h6.869l.594 18.009z" fill="#ec771b"/><path d="m474.569 252.113h-4.339v-32.669h3.262l.594 18.009z" fill="#c55732"/><path d="m470.23 234.816v-15.372h-3.607l-.507 15.372z" fill="#c55732"/><path d="m473.999 234.816-.507-15.372h-3.262v15.372z" fill="#a44e3e"/><g><path d="m484.243 225.176c-3.88 3.704-8.947 5.556-14.013 5.556-5.065 0-10.132-1.852-14.013-5.556-6.191-5.908-7.429-14.753-3.715-21.836 3.884-7.407 7.941-14.729 11.242-22.398l6.485-15.066 6.474 15.036c3.307 7.68 7.369 15.013 11.257 22.433 3.712 7.082 2.473 15.925-3.717 21.831z" fill="#43af3e"/><path d="m484.243 225.176c-3.88 3.704-8.947 5.556-14.013 5.556-2.403 0-4.807-1.852-6.649-5.556-2.977-5.988-3.54-14.995-1.689-22.124 2.575-9.915 4.856-20.128 6.97-30.476l1.368-6.699 6.474 15.036c3.307 7.68 7.369 15.013 11.257 22.433 3.711 7.081 2.472 15.924-3.718 21.83z" fill="#00a23e"/><path d="m484.243 225.176c-3.88 3.704-8.947 5.556-14.013 5.556v-64.856l6.474 15.036c3.307 7.68 7.369 15.013 11.257 22.433 3.711 7.082 2.472 15.925-3.718 21.831z" fill="#008839"/></g></g><g><path d="m30.955 261.698h-9.001l.482-15.084.592-18.531h6.853l.593 18.531z" fill="#ec771b"/><path d="m30.955 261.698h-4.328v-33.615h3.254l.593 18.531z" fill="#c55732"/><path d="m26.627 244.236v-16.153h-3.599l-.516 16.153z" fill="#c55732"/><path d="m30.398 244.236-.517-16.153h-3.254v16.153z" fill="#a44e3e"/><g><path d="m40.607 233.981c-3.871 3.811-8.926 5.717-13.98 5.717s-10.108-1.906-13.98-5.717c-6.176-6.079-7.412-15.18-3.706-22.468 3.875-7.622 7.923-15.155 11.216-23.046l6.47-15.502 6.459 15.471c3.299 7.902 7.352 15.448 11.231 23.082 3.702 7.288 2.466 16.386-3.71 22.463z" fill="#43af3e"/><path d="m40.607 233.981c-3.871 3.811-8.926 5.717-13.98 5.717-2.398 0-4.795-1.906-6.633-5.717-2.97-6.161-3.532-15.428-1.685-22.764 2.569-10.202 4.845-20.711 6.954-31.358l1.365-6.893 6.459 15.471c3.299 7.902 7.352 15.448 11.231 23.082 3.701 7.287 2.465 16.385-3.711 22.462z" fill="#00a23e"/><path d="m40.607 233.981c-3.871 3.811-8.926 5.717-13.98 5.717v-66.732l6.459 15.471c3.299 7.902 7.352 15.448 11.231 23.082 3.702 7.287 2.466 16.385-3.71 22.462z" fill="#008839"/></g></g><g><path d="m101.22 278.431h-6.754l.361-11.319.445-13.904h5.142l.445 13.904z" fill="#ec771b"/><path d="m101.22 278.431h-3.248v-25.223h2.442l.445 13.904z" fill="#c55732"/><path d="m97.972 265.686v-12.478h-2.7l-.399 12.478z" fill="#c55732"/><path d="m100.813 265.686-.399-12.478h-2.442v12.478z" fill="#a44e3e"/><g><path d="m108.463 257.633c-2.905 2.86-6.698 4.29-10.491 4.29-3.792 0-7.585-1.43-10.491-4.29-4.634-4.561-5.561-11.391-2.781-16.859 2.908-5.719 5.945-11.372 8.416-17.293l4.855-11.633 4.847 11.609c2.476 5.93 5.517 11.591 8.427 17.32 2.78 5.469 1.852 12.296-2.782 16.856z" fill="#43af3e"/><path d="m108.463 257.633c-2.905 2.86-6.698 4.29-10.491 4.29-1.799 0-3.598-1.43-4.977-4.29-2.229-4.624-2.651-11.577-1.265-17.082 1.927-7.656 3.635-15.541 5.218-23.53l1.024-5.172 4.847 11.609c2.476 5.93 5.517 11.591 8.427 17.32 2.779 5.468 1.851 12.295-2.783 16.855z" fill="#00a23e"/><path d="m108.463 257.633c-2.905 2.86-6.698 4.29-10.491 4.29v-50.074l4.847 11.609c2.476 5.93 5.517 11.591 8.427 17.32 2.779 5.468 1.851 12.295-2.783 16.855z" fill="#008839"/></g></g><g><path d="m373.938 173.083c.001-.099.007-.197.007-.296 0-18.14-14.706-32.846-32.846-32.846-4.309 0-8.421.838-12.192 2.348-7.284-13.049-21.22-21.878-37.225-21.878-20.784 0-38.084 14.885-41.844 34.574-1.121-.161-2.265-.248-3.431-.248-11.3 0-20.768 7.823-23.299 18.347h150.83z" fill="#fff"/><path d="m341.89 173.083c0-.057.004-.113.004-.17 0-10.431-8.456-18.887-18.887-18.887-2.478 0-4.843.482-7.011 1.35-4.188-7.503-12.202-12.58-21.406-12.58-11.952 0-21.899 8.559-24.061 19.881-.645-.092-1.303-.143-1.973-.143-6.498 0-11.942 4.498-13.398 10.55h86.732z" fill="#dff7fd"/></g><path d="m512 256c0 3.58-.07 7.15-.22 10.69-.46 11.22-1.65 22.25-3.51 33.05-.18 1.06-.37 2.12-.57 3.18h-256.04l44.25-17.22c42.2-16.41 87.09-24.83 132.37-24.83 4.78-4.78 10.42-8.51 16.54-11.05 6.13-2.54 12.76-3.89 19.52-3.89h47.46c.1 2.51.16 5.02.19 7.55.01.84.01 1.68.01 2.52z" fill="#6cdc2d"/><path d="m511.78 266.69c-.46 11.22-1.65 22.25-3.51 33.05-.18 1.06-.37 2.12-.57 3.18h-188.83c39.41-14.08 80.96-21.3 122.86-21.3 4.78-4.78 10.41-8.51 16.54-11.05s12.75-3.88 19.51-3.88z" fill="#5dbf1d"/><path d="m195.16 302.92h-190.86c-.2-1.06-.39-2.12-.57-3.18-1.44-8.3-2.47-16.75-3.07-25.31-.01-.12-.02-.25-.03-.37-.42-5.96-.63-11.99-.63-18.06 0-.33 0-.67.01-1h16.3c5.69 0 11.25 1.13 16.41 3.26 5.15 2.13 9.88 5.27 13.91 9.29 38.08 0 75.83 7.09 111.32 20.89z" fill="#b6e337"/><path d="m127.27 302.92h-122.97c-.2-1.06-.39-2.12-.57-3.18-1.44-8.3-2.47-16.75-3.07-25.31h1.63c5.31 0 10.52 1.05 15.34 3.05 4.82 1.99 9.25 4.93 13.01 8.69 32.95 0 65.63 5.68 96.63 16.75z" fill="#6cdc2d"/><g><path d="m421.09 451.65c-15.39 13.01-32.34 24.22-50.52 33.34l-105.11-182.07h6.9z" fill="#ff9f00"/><path d="m370.57 484.99c-17.59 8.82-36.33 15.67-55.95 20.26l-54.22-202.33h5.06z" fill="#ffc300"/><path d="m314.62 505.25c-18.58 4.36-37.94 6.69-57.83 6.75h-.76v-209.08h4.37z" fill="#6cdc2d"/><path d="m239.71 302.92-148.77 148.76c-8.51-7.18-16.54-14.91-24.05-23.13-6.45-7.07-12.52-14.5-18.15-22.26l179.02-103.37z" fill="#159de4"/><path d="m227.76 302.92-179.02 103.37c-7-9.63-13.34-19.77-18.95-30.35-4.39-8.26-8.34-16.79-11.81-25.55l177.18-47.47z" fill="#65b2fe"/><path d="m195.16 302.92-177.18 47.47c-3.82-9.6-7.07-19.48-9.71-29.61-1.53-5.87-2.86-11.83-3.97-17.86z" fill="#ff6378"/><path d="m463.28 406.26c-5.64 7.77-11.71 15.22-18.17 22.29-7.49 8.21-15.52 15.93-24.02 23.1l-148.73-148.73h11.95z" fill="#65b2fe"/><path d="m494.03 350.38c-7.92 19.98-18.3 38.73-30.75 55.88l-178.97-103.34h32.6z" fill="#159de4"/><path d="m414.038 347.431c0 3.623-2.937 6.56-6.56 6.56s-6.56-2.937-6.56-6.56 2.937-6.56 6.56-6.56 6.56 2.936 6.56 6.56z" fill="#148cc1"/><path d="m507.7 302.92c-1.11 6.03-2.44 11.99-3.98 17.86-2.63 10.12-5.88 20-9.69 29.6l-177.12-47.46z" fill="#fe3345"/><path d="m251.66 302.92-54.22 202.35c-39.9-9.34-76.21-28.01-106.5-53.59l148.77-148.76z" fill="#f99568"/><path d="m251.66 302.92-54.22 202.35c-19.62-4.59-38.37-11.44-55.96-20.27l105.12-182.08z" fill="#ed784a"/><path d="m256.03 302.92v209.08h-.03c-20.14 0-39.75-2.33-58.56-6.73l54.22-202.35z" fill="#b6e337"/></g><path d="m338.653 453.11c0 3.623-2.937 6.56-6.56 6.56s-6.56-2.937-6.56-6.56 2.937-6.56 6.56-6.56 6.56 2.937 6.56 6.56z" fill="#ff9f00"/><circle cx="125.591" cy="378.082" fill="#148cc1" r="3.28"/><path d="m475.012 331.908c0 3.623-2.937 6.56-6.56 6.56s-6.56-2.937-6.56-6.56 2.937-6.56 6.56-6.56 6.56 2.937 6.56 6.56z" fill="#de1263"/><path d="m381.884 378.22c0 3.623-2.937 6.56-6.56 6.56s-6.56-2.937-6.56-6.56 2.937-6.56 6.56-6.56 6.56 2.937 6.56 6.56z" fill="#159de4"/><path d="m184.485 316.203c0 2.562-2.077 4.639-4.639 4.639s-4.639-2.077-4.639-4.639 2.077-4.639 4.639-4.639 4.639 2.077 4.639 4.639z" fill="#159de4"/><path d="m296.459 489.662c0 3.623-2.937 6.56-6.56 6.56s-6.56-2.937-6.56-6.56 2.937-6.56 6.56-6.56 6.56 2.937 6.56 6.56z" fill="#00a23e"/><circle cx="338.653" cy="397.52" fill="#ec781b" r="6.56"/><circle cx="460.748" cy="365.1" fill="#148cc1" r="6.56"/><circle cx="170.614" cy="354.335" fill="#148cc1" r="6.56"/><path d="m410.968 401.748c0 3.623-2.937 6.56-6.56 6.56s-6.56-2.937-6.56-6.56 2.937-6.56 6.56-6.56 6.56 2.937 6.56 6.56z" fill="#159de4"/><path d="m325.533 486.409c0 3.623-2.937 6.56-6.56 6.56s-6.56-2.937-6.56-6.56 2.937-6.56 6.56-6.56 6.56 2.937 6.56 6.56z" fill="#ec781b"/><path d="m358.333 324.133c0 3.623-2.937 6.56-6.56 6.56s-6.56-2.937-6.56-6.56 2.937-6.56 6.56-6.56 6.56 2.937 6.56 6.56z" fill="#148cc1"/><path d="m102.289 408.308c0 3.623-2.937 6.56-6.56 6.56s-6.56-2.937-6.56-6.56 2.937-6.56 6.56-6.56 6.56 2.937 6.56 6.56z" fill="#148cc1"/><path d="m236.855 473.289c0 3.623-2.937 6.56-6.56 6.56s-6.56-2.937-6.56-6.56 2.937-6.56 6.56-6.56 6.56 2.937 6.56 6.56z" fill="#43af3e"/><path d="m314.872 406.495c0 2.621-2.125 4.747-4.747 4.747-2.621 0-4.747-2.125-4.747-4.747s2.125-4.747 4.747-4.747 4.747 2.125 4.747 4.747z" fill="#ec781b"/><path d="m288.086 441.803c0 2.621-2.125 4.747-4.747 4.747s-4.747-2.125-4.747-4.747 2.125-4.747 4.747-4.747 4.747 2.126 4.747 4.747z" fill="#00a23e"/><path d="m304.362 342.684c0 2.621-2.125 4.747-4.747 4.747s-4.747-2.125-4.747-4.747 2.125-4.747 4.747-4.747 4.747 2.125 4.747 4.747z" fill="#ec781b"/><path d="m351.773 356.351c0 2.622-2.125 4.747-4.747 4.747s-4.747-2.125-4.747-4.747c0-2.621 2.125-4.747 4.747-4.747s4.747 2.126 4.747 4.747z" fill="#159de4"/><path d="m152.854 333.722c0 2.622-2.125 4.747-4.747 4.747-2.621 0-4.747-2.125-4.747-4.747 0-2.621 2.125-4.747 4.747-4.747 2.621 0 4.747 2.125 4.747 4.747z" fill="#159de4"/><path d="m440.91 411.241c0 2.622-2.125 4.747-4.747 4.747s-4.747-2.125-4.747-4.747c0-2.621 2.125-4.747 4.747-4.747 2.622.001 4.747 2.126 4.747 4.747z" fill="#159de4"/><path d="m323.72 333.722c0 2.622-2.125 4.747-4.747 4.747s-4.747-2.125-4.747-4.747c0-2.621 2.125-4.747 4.747-4.747 2.621 0 4.747 2.125 4.747 4.747z" fill="#159de4"/><path d="m47.317 356.351c0 2.622-2.125 4.747-4.747 4.747-2.621 0-4.747-2.125-4.747-4.747 0-2.621 2.125-4.747 4.747-4.747s4.747 2.126 4.747 4.747z" fill="#159de4"/><path d="m111.783 340.871c0 2.621-2.125 4.747-4.747 4.747s-4.747-2.125-4.747-4.747 2.125-4.747 4.747-4.747c2.621 0 4.747 2.125 4.747 4.747z" fill="#159de4"/><circle cx="75.977" cy="368.241" fill="#159de4" r="7.888"/><path d="m266.857 356.351c0 2.622-2.125 4.747-4.747 4.747-2.621 0-4.747-2.125-4.747-4.747 0-2.621 2.125-4.747 4.747-4.747s4.747 2.126 4.747 4.747z" fill="#00a23e"/><circle cx="389.227" cy="446.55" fill="#ec781b" r="6.56"/><path d="m296.459 371.66c0 3.623-2.937 6.56-6.56 6.56s-6.56-2.937-6.56-6.56 2.937-6.56 6.56-6.56 6.56 2.937 6.56 6.56z" fill="#ff9f00"/><g fill="#de1263"><path d="m407.478 310.705c0 2.423-1.965 4.388-4.388 4.388s-4.388-1.965-4.388-4.388 1.965-4.388 4.388-4.388 4.388 1.965 4.388 4.388z"/><circle cx="377.772" cy="311.564" r="4.111"/><path d="m143.36 310.705c0 2.271-1.841 4.112-4.112 4.112s-4.111-1.841-4.111-4.112 1.841-4.111 4.111-4.111c2.271-.001 4.112 1.84 4.112 4.111z"/><circle cx="23.462" cy="334.805" r="6.139"/><path d="m39.879 310.705c0 2.271-1.841 4.112-4.111 4.112s-4.111-1.841-4.111-4.112 1.841-4.111 4.111-4.111 4.111 1.84 4.111 4.111z"/><circle cx="72.2" cy="324.133" r="4.111"/><path d="m109.36 309.613c0 2.271-1.841 4.112-4.111 4.112-2.271 0-4.112-1.841-4.112-4.112s1.841-4.112 4.112-4.112c2.271.001 4.111 1.842 4.111 4.112z"/><circle cx="443.416" cy="316.388" r="4.111"/><circle cx="496.14" cy="312.091" r="4.111"/></g><path d="m245.258 413.055c0 3.623-2.937 6.56-6.56 6.56s-6.56-2.937-6.56-6.56 2.937-6.56 6.56-6.56 6.56 2.936 6.56 6.56z" fill="#43af3e"/><path d="m213.734 112.562c0 18.344-14.874 33.218-33.218 33.218-18.352 0-33.218-14.874-33.218-33.218 0-18.352 14.867-33.225 33.218-33.225 18.345-.001 33.218 14.873 33.218 33.225z" fill="#fff9bb"/><path d="m213.734 112.562c0 18.344-14.874 33.218-33.218 33.218v-66.444c18.345 0 33.218 14.874 33.218 33.226z" fill="#ffeb98"/><g><path d="m134.427 177.338c0-.062.005-.124.005-.186 0-11.414-9.253-20.667-20.667-20.667-2.712 0-5.299.528-7.671 1.477-4.583-8.21-13.352-13.766-23.423-13.766-13.078 0-23.963 9.366-26.329 21.754-.705-.101-1.426-.156-2.159-.156-7.11 0-13.068 4.922-14.66 11.544z" fill="#fff"/><path d="m114.262 177.338c0-.036.003-.071.003-.107 0-6.564-5.321-11.884-11.884-11.884-1.559 0-3.047.303-4.411.849-2.635-4.721-7.678-7.916-13.469-7.916-7.52 0-13.779 5.385-15.14 12.509-.406-.058-.82-.09-1.241-.09-4.089 0-7.514 2.83-8.43 6.638h54.572z" fill="#dff7fd"/></g><g><path d="m436.9 74.88h-179.36c0-.13-.01-.26-.01-.39 0-23.71 19.22-42.93 42.93-42.93 5.63 0 11.01 1.09 15.94 3.07 4.97-8.91 12.32-16.32 21.18-21.35 37.83 12.71 71.71 34.01 99.32 61.6z" fill="#fff"/><path d="m299.427 74.879c0-.075-.005-.148-.005-.223 0-13.635 11.053-24.688 24.688-24.688 3.239 0 6.33.63 9.164 1.764 5.475-9.808 15.949-16.444 27.979-16.444 15.622 0 28.624 11.188 31.45 25.986.842-.121 1.703-.187 2.578-.187 8.494 0 15.61 5.88 17.512 13.79h-113.366z" fill="#dff7fd"/></g></g></g></svg>