<svg height="512" viewBox="0 0 60 61" width="512" xmlns="http://www.w3.org/2000/svg"><g id="Page-1" fill="none" fill-rule="evenodd"><g id="037---Hold-Steering-Wheel" fill-rule="nonzero" transform="translate(-1)"><path id="Shape" d="m59.11 22.86-4.28 4.28c.1123144.9492092.1690778 1.9041695.17 2.86.0026834 1.7187908-.1851297 3.432585-.56 5.11l-16.48-5.83c-.3818237-3.5563084-3.3832531-6.2527383-6.96-6.2527383s-6.5781763 2.6964299-6.96 6.2527383l-16.48 5.83c-.37487031-1.677415-.56268338-3.3912092-.56-5.11.0009222-.9558305.05768558-1.9107908.17-2.86l-4.28-4.28c-2.97382894 11.7253481 1.64279194 24.0649629 11.5826587 30.9589091 9.9398668 6.8939463 23.1148158 6.8939463 33.0546826 0 9.9398668-6.8939462 14.5564876-19.233561 11.5826587-30.9589091zm-31.11 30.95c-7.9335402-1.0075662-14.8460353-5.8957949-18.44-13.04l16.48-5.83c.5657964.573219 1.2295882 1.0405826 1.96 1.38zm6 0v-17.49c.7304118-.3394174 1.3942036-.806781 1.96-1.38l16.48 5.83c-3.5939647 7.1442051-10.5064598 12.0324338-18.44 13.04z" fill="#02a9f4"/><path id="Shape" d="m59.11 22.86-2.5 2.5c1.3413247 8.1350815-.8520061 16.4559911-6.0291183 22.8728604-5.1771123 6.4168692-12.8461186 10.3200191-21.0808817 10.7291396.4973333.0253333.9973333.038 1.5.038 8.948589-.0027365 17.3950686-4.1352731 22.8891064-11.1987567 5.4940378-7.0634837 7.4206386-16.2672376 5.2208936-24.9412433z" fill="#0377bc"/><path id="Shape" d="m43.96 4.06-3.77 3.77c-5.8837191-2.44004813-12.4962809-2.44004813-18.38 0l-3.78-3.78c8.1649829-4.07023853 17.7681589-4.06653503 25.93.01z" fill="#02a9f4"/><g fill="#ffe0b2"><path id="Shape" d="m11.64 27.36c-1.1751514 1.1698661-3.07484863 1.1698661-4.25 0l-.22-.22-4.28-4.28-.01-.01c-.85890475-.8587853-1.11637519-2.1501806-.65248986-3.2726956.46388534-1.122515 1.55790109-1.8554015 2.77248986-1.8573044.7714407-.0017935 1.51349637.2957457 2.07.83l4.57 4.57c1.1698135 1.1712702 1.1698135 3.0687298 0 4.24z"/><path id="Shape" d="m17.02 24.26c-1.1712702 1.1698135-3.0687298 1.1698135-4.24 0l-5.71-5.71-2.28-2.27c-1.16986609-1.1751514-1.16986609-3.0748486 0-4.25 1.08920997-1.0875371 2.82340446-1.1781294 4.02-.21l.12.11 7.39 7.39.01.01.69.69c1.1698135 1.1712702 1.1698135 3.0687298 0 4.24z"/><path id="Shape" d="m19.98 19.75c-1.163025.717655-2.6657604.5483909-3.64-.41l-.01-.01-.01-.01-.01-.01-7.27-7.28c-.03413477-.0360164-.07090301-.0694421-.11-.1l-.12-.11-.48-.49c-1.17360509-1.1708437-1.17584367-3.07139491-.005-4.245s3.0713949-1.17584367 4.245-.005l1.14 1.14c0 .01.02.03.03.04l6.03 6.02-.44.34c-1.3114511 1.0123995-1.5573533 2.8946688-.55 4.21.3086458.4103325.7236065.7284689 1.2.92z"/><path id="Shape" d="m24.6 10.63c-.1512145.0767917-.2951394.1671632-.43.27l-4.4 3.38-6.03-6.02c-.01-.01-.03-.03-.03-.04-1.1625593-1.18188937-1.1468893-3.08244057.0350001-4.24499994 1.1818893-1.16255938 3.0824405-1.14688937 4.2449999.03499994l.04.04 3.78 3.78z"/><path id="Shape" d="m27.83 15.66-4.84 3.72c-.8580998.6602176-2.0072008.80194-3 .37h-.01c-.4763935-.1915311-.8913542-.5096675-1.2-.92-1.0073533-1.3153312-.7614511-3.1976005.55-4.21l.44-.34 4.4-3.38c.1348606-.1028368.2787855-.1932083.43-.27 1.3775064-.72546025 3.0810529-.2766336 3.9222791 1.0333874.8412262 1.3100209.5405516 3.0458524-.6922791 3.9966126z"/><path id="Shape" d="m59.12 22.85-.01.01-4.28 4.28-.22.22c-.757403.7591894-1.8622951 1.0566397-2.8984739.7803041s-1.8462243-1.0844751-2.125-2.1200001c-.2787758-1.035525.0160708-2.1411146.7734739-2.900304l4.57-4.57c1.177773-1.1257852 3.039427-1.1035697 4.19.05 1.1698661 1.1751514 1.1698661 3.0748486 0 4.25z"/></g><path id="Shape" d="m59.12 18.6c-.9593965-.9672436-2.4532066-1.1592225-3.626-.466.2281982.127211.4386704.2838884.626.466 1.1698661 1.1751514 1.1698661 3.0748486 0 4.25l-.01.01-4.28 4.28-.22.22c-.1880488.1811377-.3988086.3371067-.627.464 1.1750352.6822623 2.6615585.4920922 3.627-.464l.22-.22 4.28-4.28.01-.01c1.1698661-1.1751514 1.1698661-3.0748486 0-4.25z" fill="#dfc49c"/><path id="Shape" d="m57.21 16.28-2.28 2.27-5.71 5.71c-.7478823.8026127-1.8742222 1.1329967-2.9371556.8615422-1.0629335-.2714546-1.892932-1.1014531-2.1643866-2.1643866-.2714545-1.0629334.0589295-2.1892733.8615422-2.9371556l.69-.69.01-.01.01-.01 7.39-7.38.11-.11c1.2419589-1.0105951 3.0580952-.8702991 4.1301091.3190497 1.0720139 1.1893487 1.0235955 3.0102522-.1101091 4.1409503z" fill="#ffe0b2"/><path id="Shape" d="m57.21 12.03c-.5604962-.5651166-1.3240676-.8820708-2.12-.88-.5317426.0006596-1.0539294.141381-1.514.408.231425.128374.4446473.2871136.634.472 1.1698661 1.1751514 1.1698661 3.0748486 0 4.25l-2.28 2.27-5.71 5.71c-.1856731.1806148-.3940952.3362591-.62.463 1.1720747.684277 2.6578766.4942422 3.62-.463l5.71-5.71 2.28-2.27c1.1698661-1.1751514 1.1698661-3.0748486 0-4.25z" fill="#dfc49c"/><path id="Shape" d="m53.67 11.33-.48.49-.11.11c-.0447195.0272235-.0851586.0609227-.12.1l-7.27 7.28-.01.01-.01.01-.01.01c-.9742396.9583909-2.476975 1.127655-3.64.41.4763935-.1915311.8913542-.5096675 1.2-.92 1.0073533-1.3153312.7614511-3.1976005-.55-4.21l-.44-.34 6.03-6.02c.01-.01.03-.03.03-.04l1.14-1.14c1.1736051-1.17084358 3.0741563-1.16860496 4.2449999.00500009 1.1708436 1.17360506 1.1686051 3.07415621-.0049999 4.24499991z" fill="#ffe0b2"/><path id="Shape" d="m53.67 7.08c-.9619612-.9585935-2.4499851-1.14644623-3.62-.457.8202605.45261812 1.3766604 1.26805735 1.4990045 2.19688585.1223441.92882851-.2039244 1.86053165-.8790045 2.51011415l-.48.49-.11.11c-.0447195.0272235-.0851586.0609227-.12.1l-6.647 6.656c-.032.047-.057.1-.093.144-.2079011.2630009-.460409.4874148-.746.663-.1257033.1046801-.2594495.1993055-.4.283 1.1569636.6844986 2.6295789.5056019 3.589-.436l.01-.01.01-.01.01-.01 7.27-7.28c.0348414-.0390773.0752805-.0727765.12-.1l.11-.11.48-.49c.5659497-.5625152.8839379-1.327676.8833747-2.12562462-.0005633-.79794863-.3196315-1.56265976-.8863747-2.12437538z" fill="#dfc49c"/><path id="Shape" d="m48.29 8.22c0 .01-.02.03-.03.04l-6.03 6.02-4.4-3.38c-.1348606-.1028368-.2787855-.1932083-.43-.27l2.79-2.8 3.77-3.77.05-.05c1.1625594-1.1818893 3.0631106-1.1975593 4.2449999-.03499993 1.1818894 1.16255937 1.1975594 3.06311055.0350001 4.24499993z" fill="#ffe0b2"/><path id="Shape" d="m48.26 4.01c-.9650435-.95609039-2.4521119-1.14438401-3.625-.459.2275909.12488211.4377331.27921056.625.459 1.1583406 1.15953065 1.1716985 3.03407952.03 4.21 0 .01-.02.03-.03.04l-4.725 4.718 1.7 1.3 6.03-6.02c.01-.01.03-.03.03-.04 1.1390114-1.17703307 1.1234324-3.0500759-.035-4.208z" fill="#dfc49c"/><path id="Shape" d="m43.84 17.01c.001005.6586557-.2171119 1.2989343-.62 1.82-.3086458.4103325-.7236065.7284689-1.2.92h-.01c-.9927992.43194-2.1419002.2902176-3-.37l-4.84-3.72c-1.2328307-.9507602-1.5335053-2.6865917-.6922791-3.9966126.8412262-1.310021 2.5447727-1.75884765 3.9222791-1.0333874.1512145.0767917.2951394.1671632.43.27l4.4 3.38.44.34c.7423021.5698564 1.1752235 1.4542001 1.17 2.39z" fill="#ffe0b2"/><path id="Shape" d="m42.67 14.62-.44-.34-4.4-3.38c-.1348606-.1028368-.2787855-.1932083-.43-.27-.9120491-.4830519-2.0090701-.4599766-2.9.061.114095.064066.2249012.1338205.332.209l4.4 3.38.44.34c1.3114511 1.0123995 1.5573533 2.8946688.55 4.21-.2394558.3035152-.5386203.5546908-.879.738.8095928.483283 1.8012961.5509076 2.669.182h.01c.4763935-.1915311.8913542-.5096675 1.2-.92 1.0073533-1.3153312.7614511-3.1976005-.55-4.21z" fill="#dfc49c"/><circle id="Oval" cx="31" cy="30" fill="#3f51b5" r="3"/><path id="Shape" d="m59.828 17.9c-.5099557-.4969265-1.1474843-.8430332-1.842-1 1.0639878-1.1106244 1.3911632-2.7356823.8398578-4.1715162-.5513055-1.4358339-1.8819887-2.4243373-3.4158578-2.5374838.3522228-1.36746598-.0426681-2.81932679-1.039-3.82-1.1480649-1.0836886-2.8152056-1.41439646-4.29-.851-.1298049-.83961819-.5218325-1.61667284-1.12-2.22-1.4101806-1.3170862-3.5440696-1.48311529-5.141-.4-8.1151805-3.85157032-17.5311186-3.85487429-25.649-.009-1.60238-1.07668366-3.7366689-.90065983-5.141.424-.5945166.60011664-.9837813 1.37304492-1.112 2.208-1.4778985-.56143089-3.14672097-.22766639-4.295.859-.99351153.99981805-1.38646943 2.44927783-1.034 3.814-1.53028119.1174311-2.85624051 1.1053467-3.40655003 2.5380749s-.2266385 3.0542653.83155003 4.1659251c-.69464555.1566216-1.33226314.5027766-1.842 1-1.41117936 1.4012745-1.56599673 3.6311578-.362 5.214-2.86209701 12.0656789 1.99426861 24.6488368 12.2201899 31.6633034 10.2259212 7.0144666 23.713699 7.0144666 33.9396202 0 10.2259213-7.0144666 15.0822869-19.5976245 12.2201899-31.6633034 1.205321-1.5835296 1.0504745-3.8151154-.362-5.217zm-.828 2.826c.0014371.5306972-.2095879 1.0398938-.586 1.414l-4.514 4.516c-.791167.755814-2.036833.755814-2.828 0-.7807639-.7809997-.7807639-2.0470003 0-2.828l4.516-4.516c.5721742-.5703885 1.4313318-.7405091 2.1776934-.4312022s1.2333281 1.037288 1.2343066 1.8452022zm-5 9.274c.001119 1.2669746-.1045887 2.5317878-.316 3.781l-14.819-5.241c-.7050081-3.788837-4.011129-6.5365196-7.865-6.5365196s-7.1599919 2.7476826-7.865 6.5365196l-14.819 5.241c-.21141127-1.2492122-.31711902-2.5140254-.316-3.781 0-.346.015-.7.031-1.047 1.12796245.4565541 2.4028667.3715885 3.460269-.2306084 1.0574024-.6021969 1.780921-1.6553449 1.963731-2.8583916 1.3919117.5596697 2.9805027.2858247 4.1046924-.7075764 1.1241898-.9934011 1.5914399-2.5362199 1.2073076-3.9864236.449476-.0368144.8892452-.1508161 1.3-.337.1890923.0588822.382288.1036715.578.134.1750763.0227733.3514489.0341306.528.034.8791587.000456 1.7335626-.2911458 2.429-.829l4.84-3.719c1.5384088-1.173263 2.0146753-3.2804559 1.1303895-5.0012948-.8842858-1.72083883-2.8748104-2.56042431-4.7243895-1.9927052l-1.221-1.219c4.7835015-1.60996577 9.9624985-1.60996577 14.746 0l-1.218 1.22c-1.8443145-.54764551-3.8172305.29525475-4.6964667 2.0064985-.8792362 1.7112438-.4156862 3.8059991 1.1034667 4.9865015l4.84 3.719c.6955663.5374964 1.5499583.8287424 2.429.828.1765511.0001306.3529237-.0112267.528-.034.195712-.0303285.3889077-.0751178.578-.134.4107548.1861839.850524.3001856 1.3.337-.0833317.3167525-.12766.6424981-.132.97-.0047173 1.3209078.6452508 2.5583614 1.7354911 3.3041467 1.0902404.7457853 2.4791338.9030268 3.7085089.4198533.1842556 1.2022681.9080196 2.2543401 1.9649426 2.856264 1.0569231.601924 2.3310271.6876496 3.4590574.232736.012.348.027.698.027 1.048zm-29.218-18.3c.5666232-.4355068 1.3225448-.5356417 1.9830163-.262685.6604715.2729568 1.1251517.8775365 1.219 1.586s-.1973931 1.4131782-.7640163 1.848685l-4.841 3.719c-.8760328.6630512-2.122898.4953099-2.7925551-.3756838-.669657-.8709936-.5113495-2.1190916.3545551-2.7953162zm17.277 3.72c.6414722.4928827.9228559 1.3236595.7129318 2.1049097-.209924.7812502-.8698108 1.359105-1.6719318 1.4640903-.5268145.0722752-1.0604296-.0720426-1.479-.4l-4.841-3.722c-.8230627-.6884729-.9561477-1.9037879-.3015888-2.7540701s1.8634836-1.0324998 2.7395888-.4129299zm15.027-1.26c.0014371.5306972-.2095879 1.0398938-.586 1.414l-7.985 7.986c-.7915755.7547943-2.0364245.7547943-2.828 0-.375248-.375096-.5860729-.8839266-.5860729-1.4145s.2108249-1.039404.5860729-1.4145l.7-.7.01-.009 7.283-7.283c.5736215-.5670162 1.4316974-.7339808 2.1760777-.4234217s1.2293661 1.0378557 1.2299223 1.8444217zm-4.123-6.373c.3813976.37323046.5963646.88436613.5963646 1.418s-.214967 1.0447695-.5963646 1.418l-.7.7-.008.007-7.281 7.281c-.2058668.1963752-.4518451.3458045-.721.438.9507125-1.5421194.7208473-3.5348356-.556-4.82l5.268-5.26c.0268692-.02727183.0522398-.05598065.076-.086l1.087-1.087c.7947396-.75020183 2.0355133-.75414079 2.835-.009zm-5.413-3.073c.7750716.7735273.7839865 2.02652245.02 2.811-.022.024-.043.048-.063.073l-5.366 5.358-3.2-2.457 5.767-5.776c.7988293-.74671527 2.0384574-.7506409 2.842-.009zm-5.306-.352-2.3 2.3c-5.7623546-2.19701995-12.1316454-2.19701995-17.894 0l-2.306-2.31c7.1714514-3.14228817 15.330785-3.13938707 22.5.008zm-27.8.361c.7986353-.74699037 2.0386934-.75004578 2.841-.007l5.771 5.784-3.2 2.457-5.363-5.357c-.02-.025-.041-.049-.063-.073-.7650981-.77985706-.7601931-2.03016976.011-2.804zm-5.41 3.07c.79511875-.74748229 2.0337211-.75010645 2.832-.006l1.094 1.094c.0235067.03023046.0488901.05895374.076.086l5.264 5.259c-1.2766628 1.2856577-1.5064933 3.2784872-.556 4.821-.2689084-.0932026-.5147497-.2428896-.721-.439l-7.281-7.281-.008-.007-.7-.7c-.37949817-.3722276-.59356898-.88129614-.59413308-1.4128711-.00056411-.53157496.21242577-1.04109669.59113308-1.4141289zm-3.534 4.948c.77814864-.7773869 2.0380016-.7805142 2.82-.007l7.28 7.283.01.009.7.7c.375248.375096.5860729.8839266.5860729 1.4145s-.2108249 1.039404-.5860729 1.4145c-.7915755.7547943-2.0364245.7547943-2.828 0l-7.982-7.986c-.78076388-.7809997-.78076388-2.0470003 0-2.828zm-1.914 6.571c.7809997-.7807639 2.0470003-.7807639 2.828 0l4.516 4.516c.7807639.7809997.7807639 2.0470003 0 2.828-.791167.755814-2.036833.755814-2.828 0l-4.516-4.516c-.78076388-.7809997-.78076388-2.0470003 0-2.828zm27.414 38.688c-8.3259014-.0020946-16.2192386-3.7084316-21.53860351-10.1135074s-7.5132233-14.844785-5.98639649-23.0294926l2.658 2.658c-.082.833-.133 1.667-.133 2.485-.00267514 1.7927769.19318512 3.5803372.584 5.33.0627642.2790479.24201227.5178642.49242489.656069s.54801893.1625685.81757511.066931l16.48-5.83c.3655626-.1296401.6231869-.4589783.661-.845.3303847-3.0453697 2.9017614-5.3528717 5.965-5.3528717s5.6346153 2.307502 5.965 5.3528717c.0378131.3860217.2954374.7153599.661.845l16.48 5.83c.1073532.0375798.2202594.0568482.334.057.4677081.0002339.8731043-.3237507.976-.78.3908149-1.7496628.5866751-3.5372231.584-5.33 0-.816-.051-1.65-.133-2.484l2.658-2.659c1.5268268 8.1847076-.6670316 16.6244168-5.9863965 23.0294926s-13.2127021 10.1114128-21.5386035 10.1135074z" fill="#000"/><path id="Shape" d="m35 30c0-2.209139-1.790861-4-4-4s-4 1.790861-4 4 1.790861 4 4 4 4-1.790861 4-4zm-4 2c-1.1045695 0-2-.8954305-2-2s.8954305-2 2-2 2 .8954305 2 2-.8954305 2-2 2z" fill="#000"/><path id="Shape" d="m28.422 35.413c-.6213172-.2891551-1.1861438-.686701-1.668-1.174-.2731777-.2766058-.6819079-.3698181-1.048-.239l-16.48 5.83c-.27095686.0956877-.4876559.3033128-.59483926.5699315-.10718336.2666186-.09449147.5664612.03483926.8230685 3.7353081 7.4487659 10.941664 12.5419827 19.21 13.577.0410381.0063189.0824796.009661.124.01.5522847 0 1-.4477153 1-1v-17.49c.0001572-.3890241-.2253123-.7428319-.578-.907zm-1.422 17.236c-6.7615223-1.1906594-12.635198-5.3451568-16.01-11.324l14.81-5.24c.3717746.3191744.77366.6014988 1.2.843z" fill="#000"/><path id="Shape" d="m52.774 39.827-16.48-5.827c-.3666661-.1300641-.7754842-.0356614-1.048.242-.4818562.487299-1.0466828.8848449-1.668 1.174-.3517054.1637094-.5769924.5160613-.578.904v17.49c0 .5522847.4477153 1 1 1 .0414721.0003233.0829133-.0023503.124-.008 8.2693743-1.0360544 15.4759537-6.1313048 19.21-13.582.1293307-.2566073.1420226-.5564499.0348393-.8230685-.1071834-.2666187-.3238824-.4742438-.5948393-.5699315zm-17.774 12.822v-15.721c.42634-.2415012.8282254-.5238256 1.2-.843l14.812 5.24c-3.3752297 5.9793278-9.249738 10.1338951-16.012 11.324z" fill="#000"/></g></g></svg>