<?xml version="1.0" encoding="iso-8859-1"?>
<!-- Generator: Adobe Illustrator 19.0.0, SVG Export Plug-In . SVG Version: 6.00 Build 0)  -->
<svg version="1.1" id="Capa_1" xmlns="http://www.w3.org/2000/svg" xmlns:xlink="http://www.w3.org/1999/xlink" x="0px" y="0px"
	 viewBox="0 0 512 512" style="enable-background:new 0 0 512 512;" xml:space="preserve">
<g>
	<path style="fill:#388E3C;" d="M309.177,308.011c-0.832-4.992-5.077-8.725-10.155-8.896c-28.587-1.003-58.027-0.704-86.357,0.427
		c-4.843,0.192-8.939,3.627-9.984,8.341l-42.453,191.147c-1.28,5.76,2.368,11.456,8.107,12.715c0.768,0.171,1.536,0.256,2.325,0.256
		h160c5.888,0,10.667-4.779,10.667-10.667c0-0.597-0.043-1.195-0.149-1.771L309.177,308.011z"/>
	<path style="fill:#388E3C;" d="M492.793,320.64c-36.608-7.317-73.557-12.779-110.699-16.384
		c-5.867-0.576-11.093,3.712-11.669,9.579c-0.213,2.24,0.277,4.501,1.429,6.443l109.653,186.453
		c3.029,5.056,9.579,6.699,14.635,3.669c3.2-1.92,5.163-5.355,5.184-9.067v-170.24C501.326,326.016,497.764,321.664,492.793,320.64z
		"/>
	<path style="fill:#388E3C;" d="M139.321,310.379c-2.176-3.392-6.101-5.269-10.112-4.843c-37.013,3.861-73.792,9.771-110.165,17.685
		c-4.907,1.067-8.384,5.419-8.384,10.432v167.68c0,4.8,3.221,9.024,7.851,10.283c0.917,0.256,1.856,0.384,2.816,0.384
		c3.776,0,7.275-1.984,9.195-5.248l109.013-185.173C141.582,318.101,141.497,313.771,139.321,310.379z"/>
</g>
<g>
	<path style="fill:#4CAF50;" d="M221.305,303.36c-2.005-2.645-5.227-4.075-8.533-3.819c-29.568,1.109-57.6,3.136-83.563,6.016
		c-3.328,0.384-6.293,2.304-8,5.184L12.196,495.915c-2.987,5.077-1.301,11.605,3.776,14.613c1.621,0.96,3.477,1.472,5.355,1.472
		H170.66c4.992,0,9.323-3.477,10.411-8.363l42.453-191.147C224.228,309.269,223.417,305.899,221.305,303.36z"/>
	<path style="fill:#4CAF50;" d="M499.854,495.936L390.201,309.483c-1.728-2.944-4.779-4.885-8.171-5.205
		c-30.229-2.901-57.408-4.587-83.2-5.163c-5.888-0.085-10.731,4.629-10.816,10.517c0,0.64,0.043,1.28,0.149,1.92l32,191.573
		c0.875,5.12,5.312,8.875,10.496,8.875h160c5.888,0,10.667-4.779,10.667-10.667C501.326,499.435,500.814,497.579,499.854,495.936z"
		/>
</g>
<circle style="fill:#FFC107;" cx="255.993" cy="181.333" r="96"/>
<g>
	<path style="fill:#FFD54F;" d="M255.993,0c-5.888,0-10.667,4.779-10.667,10.667v42.667c0,5.888,4.779,10.667,10.667,10.667
		c5.888,0,10.667-4.779,10.667-10.667V10.667C266.66,4.779,261.881,0,255.993,0z"/>
	<path style="fill:#FFD54F;" d="M179.897,28.203c-2.731-5.227-9.173-7.232-14.4-4.501c-5.227,2.731-7.232,9.173-4.501,14.4
		c0.128,0.256,0.277,0.512,0.448,0.768l21.333,36.949c2.731,5.227,9.173,7.232,14.4,4.501c5.227-2.731,7.232-9.173,4.501-14.4
		c-0.128-0.256-0.277-0.512-0.448-0.768L179.897,28.203z"/>
	<path style="fill:#FFD54F;" d="M150.478,108.096L113.55,86.763c-5.12-2.901-11.627-1.131-14.549,4.011
		c-2.88,5.077-1.152,11.52,3.883,14.464l36.928,21.333c5.12,2.901,11.627,1.131,14.549-4.011
		C157.241,117.504,155.513,111.04,150.478,108.096z"/>
	<path style="fill:#FFD54F;" d="M409.124,257.429l-36.928-21.333c-5.12-2.901-11.627-1.131-14.549,4.011
		c-2.88,5.077-1.152,11.52,3.883,14.464l36.928,21.333c5.12,2.901,11.627,1.131,14.549-4.011
		C415.886,266.837,414.158,260.373,409.124,257.429z"/>
	<path style="fill:#FFD54F;" d="M138.66,181.333c0-5.888-4.779-10.667-10.667-10.667H85.326c-5.888,0-10.667,4.779-10.667,10.667
		S79.438,192,85.326,192h42.667C133.881,192,138.66,187.221,138.66,181.333z"/>
	<path style="fill:#FFD54F;" d="M426.66,170.667h-42.667c-5.888,0-10.667,4.779-10.667,10.667S378.105,192,383.993,192h42.667
		c5.888,0,10.667-4.779,10.667-10.667S432.548,170.667,426.66,170.667z"/>
	<path style="fill:#FFD54F;" d="M139.812,236.096l-36.928,21.333c-5.077,2.987-6.784,9.515-3.797,14.592
		c2.944,5.035,9.408,6.763,14.464,3.883l36.928-21.333c5.077-2.987,6.784-9.515,3.797-14.592
		C151.332,234.944,144.889,233.216,139.812,236.096z"/>
	<path style="fill:#FFD54F;" d="M366.926,128c1.877,0,3.712-0.491,5.333-1.429l36.928-21.333c5.077-2.987,6.784-9.515,3.797-14.592
		c-2.944-5.035-9.408-6.763-14.464-3.883l-36.928,21.333c-5.099,2.944-6.848,9.472-3.904,14.571
		C359.588,125.973,363.108,128,366.926,128z"/>
	<path style="fill:#FFD54F;" d="M346.66,24.299c-5.099-2.944-11.627-1.195-14.571,3.904l-21.333,36.949
		c-3.157,4.971-1.685,11.563,3.285,14.72s11.563,1.685,14.72-3.285c0.171-0.256,0.32-0.512,0.448-0.768l21.333-36.949
		C353.486,33.771,351.758,27.243,346.66,24.299z"/>
</g>
<path d="M21.326,344.235c-4.928,0-9.365-3.456-10.432-8.469c-1.216-5.781,2.475-11.413,8.256-12.629
	c79.744-16.704,161.515-24.363,242.901-24.576c77.035,0,154.901,7.147,230.677,22.123c5.781,1.131,9.536,6.741,8.405,12.523
	c-1.131,5.781-6.848,9.536-12.523,8.405c-74.411-14.677-150.571-21.589-226.581-21.717c-80.064,0.341-160.256,7.723-238.507,24.128
	C22.777,344.171,22.052,344.235,21.326,344.235z"/>
<path d="M255.993,277.333c-52.928,0-96-43.072-96-96s43.072-96,96-96s96,43.072,96,96S308.921,277.333,255.993,277.333z
	 M255.993,106.667c-41.173,0-74.667,33.493-74.667,74.667S214.82,256,255.993,256s74.667-33.493,74.667-74.667
	S297.166,106.667,255.993,106.667z"/>
<path d="M21.326,512c-1.835,0-3.691-0.469-5.397-1.472c-5.077-2.987-6.763-9.515-3.797-14.613l106.667-181.333
	c2.987-5.077,9.536-6.763,14.613-3.776c5.077,2.987,6.763,9.515,3.797,14.613L30.542,506.752C28.537,510.123,24.974,512,21.326,512z
	"/>
<path d="M490.66,512c-3.648,0-7.211-1.877-9.195-5.248L374.798,325.419c-3.008-5.077-1.301-11.627,3.776-14.613
	c5.056-2.965,11.605-1.323,14.613,3.776l106.667,181.333c3.008,5.077,1.301,11.627-3.776,14.613
	C494.372,511.531,492.516,512,490.66,512z"/>
<path d="M170.66,512c-0.768,0-1.536-0.085-2.325-0.256c-5.76-1.301-9.365-6.976-8.107-12.736l42.667-192
	c1.28-5.76,7.04-9.323,12.736-8.107c5.76,1.301,9.365,6.976,8.107,12.736l-42.667,192C179.982,508.629,175.545,512,170.66,512z"/>
<path d="M330.638,512c-5.099,0-9.621-3.691-10.496-8.917l-32-192c-0.981-5.803,2.965-11.307,8.768-12.267
	c5.696-1.088,11.285,2.944,12.267,8.768l32,192c0.981,5.803-2.965,11.307-8.768,12.267C331.833,511.957,331.214,512,330.638,512z"/>
<path d="M255.993,64c-5.888,0-10.667-4.779-10.667-10.667V10.667C245.326,4.779,250.105,0,255.993,0
	c5.888,0,10.667,4.779,10.667,10.667v42.667C266.66,59.221,261.881,64,255.993,64z"/>
<path d="M191.993,81.152c-3.691,0-7.275-1.92-9.259-5.333l-21.333-36.949c-2.923-5.099-1.173-11.627,3.925-14.571
	c5.077-2.965,11.605-1.195,14.571,3.904l21.333,36.949c2.944,5.099,1.195,11.627-3.904,14.571
	C195.641,80.704,193.806,81.152,191.993,81.152z"/>
<path d="M145.145,128c-1.813,0-3.648-0.448-5.333-1.429l-36.949-21.333c-5.099-2.944-6.869-9.472-3.904-14.571
	s9.472-6.869,14.571-3.904l36.949,21.333c5.099,2.944,6.848,9.472,3.904,14.571C152.42,126.08,148.836,128,145.145,128z"/>
<path d="M403.79,277.333c-1.813,0-3.648-0.448-5.333-1.429l-36.928-21.333c-5.099-2.944-6.848-9.472-3.904-14.571
	c2.923-5.12,9.472-6.827,14.571-3.904l36.928,21.333c5.099,2.944,6.848,9.472,3.904,14.571
	C411.065,275.435,407.46,277.333,403.79,277.333z"/>
<path d="M127.993,192H85.326c-5.888,0-10.667-4.779-10.667-10.667s4.779-10.667,10.667-10.667h42.667
	c5.888,0,10.667,4.779,10.667,10.667S133.881,192,127.993,192z"/>
<path d="M426.66,192h-42.667c-5.888,0-10.667-4.779-10.667-10.667s4.779-10.667,10.667-10.667h42.667
	c5.888,0,10.667,4.779,10.667,10.667S432.548,192,426.66,192z"/>
<path d="M108.196,277.333c-3.691,0-7.275-1.92-9.259-5.333c-2.944-5.099-1.195-11.627,3.904-14.571l36.949-21.333
	c5.077-2.965,11.605-1.195,14.571,3.904c2.944,5.099,1.195,11.627-3.904,14.571l-36.949,21.333
	C111.844,276.885,110.009,277.333,108.196,277.333z"/>
<path d="M366.841,128c-3.669,0-7.275-1.899-9.237-5.333c-2.965-5.099-1.216-11.627,3.904-14.571l36.928-21.333
	c5.099-2.944,11.648-1.216,14.571,3.904c2.965,5.099,1.216,11.627-3.904,14.571l-36.928,21.333
	C370.489,127.552,368.654,128,366.841,128z"/>
<path d="M319.993,81.152c-1.813,0-3.648-0.448-5.333-1.429c-5.099-2.944-6.848-9.472-3.904-14.571l21.333-36.949
	c2.944-5.099,9.472-6.827,14.571-3.904c5.099,2.944,6.848,9.472,3.904,14.571L329.23,75.819
	C327.268,79.232,323.662,81.152,319.993,81.152z"/>
<g>
</g>
<g>
</g>
<g>
</g>
<g>
</g>
<g>
</g>
<g>
</g>
<g>
</g>
<g>
</g>
<g>
</g>
<g>
</g>
<g>
</g>
<g>
</g>
<g>
</g>
<g>
</g>
<g>
</g>
</svg>
