<svg id="Capa_1" enable-background="new 0 0 510.326 510.326" height="512" viewBox="0 0 510.326 510.326" width="512" xmlns="http://www.w3.org/2000/svg"><g><g id="COLORS_31_"><g><circle cx="188.794" cy="211.436" fill="#ffb655" r="91"/><path d="m188.794 120.436c-50.258 0-91 40.742-91 91 0 1.252.032 2.497.083 3.738 1.716-44.878 38.62-80.738 83.917-80.738 46.392 0 84 37.608 84 84 0 45.298-35.86 82.201-80.738 83.917 1.24.05 2.485.083 3.738.083 50.258 0 91-40.742 91-91s-40.742-91-91-91z" fill="#ff7956"/></g><g><path d="m187.221 419.73c7.972 0 14.948-5.569 16.487-13.391.49-2.49.747-5.064.747-7.698 0-20.919-16.163-38.052-36.681-39.62-8.933-25.093-32.893-43.059-61.052-43.059-32.427 0-59.29 23.822-64.044 54.92-.964-.087-1.938-.138-2.924-.138-17.814 0-32.254 14.441-32.254 32.254 0 .061 0 .122.001.184.051 9.188 7.655 16.549 16.843 16.549h162.877z" fill="#b6e6fa"/><path d="m167.775 359.021c-8.933-25.093-32.893-43.059-61.052-43.059-14.428 0-27.748 4.725-38.516 12.7 5.869-1.748 12.08-2.7 18.516-2.7 28.159 0 52.119 17.966 61.052 43.059 20.518 1.568 36.681 18.701 36.681 39.62 0 2.634-.257 5.208-.747 7.698-.234 1.189-.607 2.318-1.077 3.391h4.59c7.972 0 14.948-5.569 16.487-13.391.49-2.49.747-5.064.747-7.698 0-20.919-16.163-38.052-36.681-39.62z" fill="#94b7f7"/></g><g><path d="m222.204 344.09h251.263c15.999 0 29.213-12.807 29.357-28.805.001-.117.002-.234.002-.351 0-13.579-7.108-25.491-17.8-32.241-3.766-31.042-30.188-55.098-62.247-55.098-1.971 0-3.917.103-5.841.28-16.875-28.967-48.264-48.439-84.205-48.439-48.44 0-88.614 35.368-96.122 81.688-.422-.012-.841-.032-1.266-.032-24.886 0-45.059 20.174-45.059 45.059 0 9.301 2.821 17.941 7.652 25.115 5.425 8.055 14.556 12.824 24.266 12.824z" fill="#b6e6fa"/><path d="m502.808 312.528c-.294-5.19-1.756-10.316-4.159-14.918-1.571-3.008-3.499-5.808-5.784-8.32-1.154-1.268-2.391-2.461-3.702-3.566-.566-.477-4.072-2.488-4.138-3.032-3.766-31.042-30.188-55.098-62.247-55.098-1.971 0-3.917.103-5.841.28-16.875-28.967-48.264-48.439-84.205-48.439-3.352 0-6.66.186-9.924.517 31.677 3.257 58.852 21.698 74.129 47.922 1.924-.178 3.87-.28 5.841-.28 32.058 0 58.481 24.056 62.247 55.098 5.002 3.158 9.22 7.446 12.291 12.506 7.857 12.944-1.441 29.754-16.583 29.889-.089.001-.178.001-.267.001h-251.262c-6.081 0-11.934-1.871-16.792-5.246 1.314 4.119 3.2 7.982 5.572 11.491 5.422 8.021 14.539 12.756 24.22 12.756h231.263 20c14.308 0 27.042-10.749 29.07-24.983.311-2.18.396-4.385.271-6.578z" fill="#94b7f7"/></g></g><g id="LINES_30_"><path d="m491.971 278.369c-5.732-33.455-34.888-58.274-69.192-58.274-.598 0-1.197.008-1.8.024-19.221-29.834-52.612-48.183-88.246-48.183-25.057 0-49.312 8.979-68.297 25.284-17.194 14.768-29.135 34.686-34.051 56.604-26.665 2.506-47.599 25.018-47.599 52.327 0 10.494 3.088 20.627 8.931 29.305 6.803 10.102 18.2 16.133 30.487 16.133h190.287 15v-15h-15-190.286c-7.289 0-14.034-3.556-18.045-9.511-4.169-6.192-6.373-13.429-6.373-20.927 0-20.71 16.849-37.56 37.559-37.56.211 0 .421.009.631.016l6.988.196 1.05-6.479c3.375-20.82 14.098-39.9 30.194-53.725 16.266-13.971 37.05-21.664 58.524-21.664 28.195 0 54.744 13.413 71.621 35.596-17.435 4.697-32.49 15.974-41.931 31.864-19.983 1.571-35.765 18.322-35.765 38.701h15c0-13.142 10.692-23.833 23.833-23.833s23.833 10.691 23.833 23.833h15c0-16.677-10.568-30.929-25.358-36.419 9.122-11.923 22.671-19.608 37.728-21.249l.934-.086c.857-.079 1.683-.136 2.495-.177.078-.004.155-.009.233-.012.774-.036 1.533-.054 2.285-.056.046 0 .092-.002.138-.002v-.001c27.888 0 51.447 20.852 54.801 48.502l.429 3.537 3.013 1.901c8.957 5.654 14.304 15.336 14.304 25.899l-.001.283c-.106 11.784-9.912 21.372-21.857 21.372h-.976v15h.976c20.143 0 36.677-16.256 36.857-36.245l.002-.41c-.001-14.546-6.8-27.967-18.356-36.564z"/><path d="m442.492 336.589h15v15h-15z"/><path d="m173.132 352.158c-4.198-9.743-10.426-18.256-18.069-25.12l7.18-19.728c1.261.353 2.529.684 3.804.985l3.451-14.598c-17.979-4.251-34.283-14.584-45.909-29.095-11.97-14.94-18.297-32.979-18.297-52.167 0-46.042 37.458-83.5 83.5-83.5 32.562 0 62.373 19.134 75.947 48.744l13.636-6.25c-5.122-11.172-12.21-21.072-20.73-29.38l20.031-23.873-11.491-9.643-20.045 23.889c-14.46-10.352-31.657-16.797-49.848-18.194v-31.132h-15v31.123c-18.508 1.4-35.602 7.94-49.86 18.189l-20.032-23.874-11.491 9.643 20.041 23.884c-12.688 12.414-22.047 28.217-26.587 45.932l-30.643-5.404-2.604 14.771 30.652 5.405c-.311 3.182-.475 6.406-.475 9.669 0 14.792 3.389 29.377 9.719 42.598l-26.98 15.577 7.5 12.99 26.966-15.569c1.388 2.032 2.842 4.022 4.386 5.95 9.727 12.142 22.247 21.786 36.275 28.167l-5.742 15.775c-10.659-6.062-22.899-9.463-35.695-9.463-8.842 0-17.483 1.58-25.683 4.697h-.001c-4.25 1.616-8.372 3.65-12.252 6.046l7.881 12.764c3.074-1.898 6.338-3.51 9.702-4.788 6.492-2.468 13.339-3.719 20.353-3.719 20.701 0 39.57 11.217 49.663 28.73-10.978 1.859-26.85 7.961-36.795 26.974l13.292 6.953c10.498-20.07 30.285-19.863 33.669-19.669l.652.05c16.684 1.275 29.753 15.394 29.753 32.142 0 2.104-.204 4.206-.606 6.25-.837 4.252-4.676 7.339-9.128 7.339h-162.879c-5.124 0-9.315-4.078-9.343-9.109v-.123c0-13.649 11.104-24.754 24.754-24.754.704 0 1.443.035 2.258.108l7.015.625 1.064-6.962c.67-4.382 1.854-8.684 3.518-12.785.471-1.16.987-2.32 1.534-3.448l-13.494-6.551c-.692 1.426-1.345 2.894-1.94 4.36-1.289 3.178-2.35 6.449-3.173 9.781-20.422 1.645-36.536 18.79-36.536 39.628v.226c.074 13.237 10.994 24.007 24.343 24.007h162.878c11.6 0 21.628-8.177 23.846-19.442.59-2.995.889-6.073.889-9.146 0-22.918-16.702-42.474-38.824-46.485z"/><path d="m68.031 338.5-10.134-11.059c-3.356 3.075-6.435 6.481-9.153 10.124l12.023 8.969c2.157-2.891 4.601-5.593 7.264-8.034z"/><g fill="#fff"><path d="m149.219 176.476-11.095-10.094c-3.783 4.158-7.048 8.77-9.702 13.706l13.211 7.104c2.075-3.858 4.627-7.463 7.586-10.716z"/><path d="m120.293 212.436h15c0-4.406.539-8.788 1.602-13.021l-14.549-3.652c-1.362 5.427-2.053 11.036-2.053 16.673z"/><path d="m159.174 167.905c3.656-2.44 7.599-4.422 11.718-5.89l-5.034-14.131c-5.281 1.882-10.332 4.42-15.013 7.546z"/></g></g></g></svg>